inDegrees=yes
name=ik_lifting_orientations
DataType=double
version=3
OpenSimVersion=4.5-2024-01-10-34fd6af
endheader
time	pelvis_tilt	pelvis_list	pelvis_rotation	pelvis_tx	pelvis_ty	pelvis_tz	hip_flexion_r	hip_adduction_r	hip_rotation_r	knee_angle_r	knee_angle_r_beta	ankle_angle_r	subtalar_angle_r	mtp_angle_r	hip_flexion_l	hip_adduction_l	hip_rotation_l	knee_angle_l	knee_angle_l_beta	ankle_angle_l	subtalar_angle_l	mtp_angle_l	lumbar_extension	lumbar_bending	lumbar_rotation	arm_flex_r	arm_add_r	arm_rot_r	elbow_flex_r	pro_sup_r	wrist_flex_r	wrist_dev_r	arm_flex_l	arm_add_l	arm_rot_l	elbow_flex_l	pro_sup_l	wrist_flex_l	wrist_dev_l
2.38	-0.1664738079993438	0.3840268828925508	-20.09127779710671	0	0.9399999998679526	0	44.11421831797468	-10.04949053629785	0	58.62251405915077	1.023155886128847	-5.01029595233044	0	0	44.11421831797468	-10.04949053629785	0	58.62251405915077	1.023155886128847	-5.01029595233044	0	0	0.07568747525155002	1.259279979896744	-74.95916316830446	48.01552834752181	2.877192749684122	20.35251499130102	71.37981608897954	3.682627600186493	0	0	0	-11.5236421183502	0	86.35295829206224	3.682627600186493	0	0
2.39	-0.1903053170039888	0.4421310735579592	-19.90510364229263	0	0.9399999998679526	0	44.11447916447366	-10.04943977341607	0	58.62283333588663	1.023161458559112	-5.010282184766393	0	0	44.11447916447366	-10.04943977341607	0	58.62283333588663	1.023161458559112	-5.010282184766393	0	0	0.123577965965999	1.151723808675143	-74.8824972790181	47.78246533265195	2.555210988054387	20.22486417639764	71.4536792707261	3.681871275834107	0	0	0	-11.52416756098901	0	86.35370725012891	3.681871275834107	0	0
2.4	-0.2123645454734964	0.4990798096826649	-19.71702138596084	0	0.9399999998679526	0	44.11468381697692	-10.0494003056373	0	58.62308548033469	1.023165859309922	-5.010271501557618	0	0	44.11468381697692	-10.0494003056373	0	58.62308548033469	1.023165859309922	-5.010271501557618	0	0	0.1577982536787858	1.11335729404947	-75.01512409003794	47.62232932288721	2.406854177601031	20.24350074842389	71.75230794025052	3.681276346939089	0	0	0	-11.52458178562789	0	86.35429638492174	3.681276346939089	0	0
2.41	-0.2296287918093323	0.5651617807696702	-19.52580438651025	0	0.9399999998679526	0	44.11488352235801	-10.0493615868756	0	58.62333040141982	1.023170133989265	-5.010261011592798	0	0	44.11488352235801	-10.0493615868756	0	58.62333040141982	1.023170133989265	-5.010261011592798	0	0	0.1617163186928896	1.168940913418651	-74.9562315090992	47.69079435585557	2.04463201915891	20.202832749368	72.01070863056944	3.680696795984371	0	0	0	-11.52498470132816	0	86.35487029137772	3.680696795984371	0	0
2.42	-0.2429470801013967	0.5671931743430262	-19.46491727323896	0	0.9399999998679526	0	44.11508056410108	-10.04932367477783	0	58.62357331939019	1.02317437370766	-5.010250758064076	0	0	44.11508056410108	-10.04932367477783	0	58.62357331939019	1.02317437370766	-5.010250758064076	0	0	0.1425653833385286	1.254285781707149	-74.83114339841062	47.70010284121391	1.819463445550599	20.06713935917405	72.17881513522281	3.680123781356294	0	0	0	-11.52538376883189	0	86.35543772536654	3.680123781356294	0	0
2.43	-0.2566649908555686	0.6369359309077615	-19.32781185775074	0	0.9399999998679526	0	44.11523852869352	-10.04929332061286	0	58.62376818147298	1.023177774692592	-5.010242551752137	0	0	44.11523852869352	-10.04929332061286	0	58.62376818147298	1.023177774692592	-5.010242551752137	0	0	0.13315802102546	1.29929703712165	-74.79136677748778	47.62262747157241	1.607736420661577	19.99039333516762	72.64206922924915	3.679664276338678	0	0	0	-11.52570385595246	0	86.35589275524748	3.679664276338678	0	0
2.44	-0.2738784550707779	0.6900621213307137	-19.24950925546154	0	0.9399999998679526	0	44.11546428354655	-10.04925010701214	0	58.62404755233878	1.023182650634034	-5.010230877273702	0	0	44.11546428354655	-10.04925010701214	0	58.62404755233878	1.023182650634034	-5.010230877273702	0	0	0.1749455128140049	1.238505537254454	-74.67240241784836	47.39433903677535	1.22688544073393	19.83512580356174	72.99514966500402	3.679006764022197	0	0	0	-11.52616236798747	0	86.35654386416671	3.679006764022197	0	0
2.45	-0.291382677441947	0.7554127152104984	-19.15579089167399	0	0.9399999998679526	0	44.11579470275635	-10.04918606128443	0	58.62445214500904	1.02318971210826	-5.010213536293754	0	0	44.11579470275635	-10.04918606128443	0	58.62445214500904	1.02318971210826	-5.010213536293754	0	0	0.1745003144854067	1.265637074506042	-74.57080709344137	47.25552052180359	0.9284060846690291	19.80345047871399	73.97767395673549	3.678048247958615	0	0	0	-11.52682847608165	0	86.35749304477561	3.678048247958615	0	0
2.46	-0.2830567792083702	0.7998649085152905	-19.15277412316161	0	0.9399999998679526	0	44.12017268638959	-10.0485991828197	0	58.63122521235093	1.023307924433835	-5.010067388367304	0	0	44.12017268638959	-10.0485991828197	0	58.63122521235093	1.023307924433835	-5.010067388367304	0	0	0.1313335489998521	1.324631546125411	-74.38569380025693	47.05195978331452	0.8253656392756639	20.0782403045885	75.76516514946643	3.664090481123154	0	0	0	-11.53729061357521	0	86.37131508202663	3.664090481123154	0	0
2.47	-0.2957807689050997	0.8136894567176863	-19.08981297259928	0	0.9399999998679526	0	44.12043357799354	-10.04854901956447	0	58.63154475582305	1.023313501519527	-5.010053844049341	0	0	44.12043357799354	-10.04854901956447	0	58.63154475582305	1.023313501519527	-5.010053844049341	0	0	0.1813698166375394	1.17841552787557	-74.27399250910881	46.58679326500936	0.646436127563582	20.00215483269514	76.69517065714575	3.663332662897138	0	0	0	-11.53781772798269	0	86.37206551973291	3.663332662897138	0	0
2.48	-0.2889349791803655	0.7265394548777042	-19.13945816080969	0	0.9399999998679526	0	44.12062435834792	-10.0485123986076	0	58.63177869915955	1.023317584601012	-5.010043960066251	0	0	44.12062435834792	-10.0485123986076	0	58.63177869915955	1.023317584601012	-5.010043960066251	0	0	0.1616158051238734	1.161621337832973	-74.23390653028221	46.3306418968931	0.5670574612019371	20.05606434092791	77.78880019534051	3.662778229195163	0	0	0	-11.5382035365412	0	86.37261455375916	3.662778229195163	0	0
2.49	-0.2923155921371305	0.7434497471729973	-19.15108791378025	0	0.9399999998679526	0	44.1208672752373	-10.04846576598464	0	58.63207642244548	1.023322780852611	-5.010031375559588	0	0	44.1208672752373	-10.04846576598464	0	58.63207642244548	1.023322780852611	-5.010031375559588	0	0	0.177469704820164	1.191476019629996	-74.39145041249196	46.25457165453194	0.6463170669433376	20.15025718136036	78.8370370189708	3.662072379411609	0	0	0	-11.53869464060586	0	86.37331352919897	3.662072379411609	0	0
2.5	-0.2895887536732706	0.7484882967087996	-19.14986335128991	0	0.9399999998679526	0	44.12115562084813	-10.04841026007231	0	58.632428836177	1.023328931632556	-5.010016391400208	0	0	44.12115562084813	-10.04841026007231	0	58.632428836177	1.023328931632556	-5.010016391400208	0	0	0.158676368519048	1.243795001009613	-74.39189900983543	46.14117879623203	0.7231459677297865	20.37781000147864	80.52527748849893	3.661235366251923	0	0	0	-11.53927648417853	0	86.37414239046515	3.661235366251923	0	0
2.51	-0.2793444461135293	0.675392926410915	-19.2180489445264	0	0.9399999998679526	0	44.12135776454625	-10.04837153269099	0	58.63267671626258	1.023333257956199	-5.010005948001613	0	0	44.12135776454625	-10.04837153269099	0	58.63267671626258	1.023333257956199	-5.010005948001613	0	0	0.1062229988423164	1.383070886334208	-74.40718876149556	46.03961979753376	0.8855347653290631	20.46491812931045	81.71714800769979	3.660647797437368	0	0	0	-11.53968539040639	0	86.37472423692292	3.660647797437368	0	0
2.52	-0.2863228943646814	0.7224887203527487	-19.21673396966569	0	0.9399999998679526	0	44.12162794566894	-10.04831954781435	0	58.6330067645817	1.023339018386058	-5.00999191968303	0	0	44.12162794566894	-10.04831954781435	0	58.6330067645817	1.023339018386058	-5.00999191968303	0	0	0.1480131675463163	1.334569448248752	-74.54513413216884	46.09231198697899	1.14322339198191	20.75136684657323	82.64448091580023	3.659863573694777	0	0	0	-11.54023048275677	0	86.37550082289832	3.659863573694777	0	0
2.53	-0.2847883328424313	0.7432330282452598	-19.21419714134166	0	0.9399999998679526	0	44.12432038319404	-10.04795241812431	0	58.63712929801113	1.023410970167925	-5.009900088990329	0	0	44.12432038319404	-10.04795241812431	0	58.63712929801113	1.023410970167925	-5.009900088990329	0	0	0.1591644593060562	1.318628550971365	-74.7024352658446	46.13283481779089	1.495143603457726	21.16284046321067	84.24989808833519	3.651310681461648	0	0	0	-11.54662406445071	0	86.38397053950519	3.651310681461648	0	0
2.54	-0.2918003170816765	0.8205280508395376	-19.15032097594399	0	0.9399999998679526	0	44.1246001938222	-10.04789884977541	0	58.6374710470181	1.023416934813313	-5.009885660640803	0	0	44.1246001938222	-10.04789884977541	0	58.6374710470181	1.023416934813313	-5.009885660640803	0	0	0.2115490874858973	1.179641458417725	-74.82739533704273	46.04207903599919	1.778208105184957	21.45166963623345	85.57597234015118	3.650497933272956	0	0	0	-11.54718923922433	0	86.38477537226451	3.650497933272956	0	0
2.55	-0.2783416003018648	0.8017259880146439	-19.21356030758125	0	0.9399999998679526	0	44.12771487432068	-10.04748261464404	0	58.64226639573115	1.023500629437136	-5.00978222017602	0	0	44.12771487432068	-10.04748261464404	0	58.64226639573115	1.023500629437136	-5.00978222017602	0	0	0.2037320095986492	1.112385284397259	-74.70466727897259	46.0037978098243	2.040179521258578	21.77738096811973	87.38449350591779	3.640568399882586	0	0	0	-11.55463057736796	0	86.39460834754244	3.640568399882586	0	0
